<svg xmlns="http://www.w3.org/2000/svg" width="280" height="302.667" viewBox="0 0 210 227">
  <path d="M65 40.7c-8.9 18.6-16.9 34.4-17.5 35.2-1.1 1.1-2.7.5-9.9-3.4-8.6-4.6-10.6-5-10.6-1.6 0 1.2 2.6 3.2 8 6.1l8.1 4.3-4.2 4c-4.7 4.5-6.5 8.4-8 16.5-1.9 10.1-6.4 12.1-17 7.7-3.5-1.5-7.4-2.9-8.6-3.2-3.6-.8-2.9 2.3 2 9.7 5.2 8 9.7 10.5 20.1 11.5 7 .7 7.4.8 8.9 4 .8 1.8 4.2 5.2 7.4 7.6 3.2 2.5 6.6 6 7.5 7.8 1.7 3.4 1.7 3.4-2.3 10.6-9.6 17.5-11.4 28.4-6.3 39.1 3 6.3 6.1 8.9 16.4 13.8 11.8 5.6 20.9 6.6 58.5 6.6 35.2 0 39.7-.6 50.4-5.9 7.1-3.7 12.8-9.9 18.6-20.6 10-18.4 14.9-43.7 11.4-59.2-1.4-6.3-5.1-13.8-6.7-13.8-.8 0-4.5 5.2-8.4 11.5-9.9 16.3-10.7 17-18.7 17-4.9 0-9.1-.9-16.5-3.5l-9.9-3.5h-20.2c-15.4 0-21.3.4-24.5 1.5-8.4 3-9 1.6-2.6-5.7 7.1-8.1 9.6-14 9.6-22.6 0-3.9.2-7.2.5-7.2s4.2 1.8 8.6 4.1c8.3 4.1 10.9 4.4 10.9 1.2 0-1.3-3-3.3-10.5-7.1-5.8-2.8-10.5-5.6-10.5-6.1s7-15.2 15.5-32.7L130 31.5C130 30.6 84 7 82.2 7 81.7 7 74 22.2 65 40.7z"/>
</svg>
