<svg xmlns="http://www.w3.org/2000/svg" width="426.667" height="224" viewBox="0 0 320 168">
  <path d="M0 45v45h128V0H0v45zM14 7c.9 0 1 .3.1 1.4-.6.7-.8 2.1-.5 3.1.6 1.5.4 1.6-1.2.7-1.4-.7-2.5-.7-3.8 0-1.6.9-1.8.8-1.2-.7.3-1 .1-2.4-.5-3.1C6 7.3 6.1 7 7.4 7c.9 0 1.9-.7 2.3-1.6.6-1.6.7-1.6 1.8 0 .7.9 1.8 1.6 2.5 1.6zm22 0c.9 0 1 .3.1 1.4-.6.7-.8 2.1-.5 3.1.6 1.5.4 1.6-1.2.7-1.4-.7-2.5-.7-3.8 0-1.6.9-1.8.8-1.2-.7.3-1 .1-2.4-.5-3.1-.9-1.1-.8-1.4.5-1.4.9 0 1.9-.7 2.3-1.6.6-1.6.7-1.6 1.8 0 .7.9 1.8 1.6 2.5 1.6zm21 0c.9 0 1 .3.1 1.4-.6.7-.8 2.1-.5 3.1.6 1.5.4 1.6-1.2.7-1.4-.7-2.5-.7-3.8 0-1.6.9-1.8.8-1.2-.7.3-1 .1-2.4-.5-3.1-.9-1.1-.8-1.4.5-1.4.9 0 1.9-.7 2.3-1.6.6-1.6.7-1.6 1.8 0 .7.9 1.8 1.6 2.5 1.6zm21 0c.9 0 1 .3.1 1.4-.6.7-.8 2.1-.5 3.1.6 1.5.4 1.6-1.2.7-1.4-.7-2.5-.7-3.8 0-1.6.9-1.8.8-1.2-.7.3-1 .1-2.4-.5-3.1-.9-1.1-.8-1.4.5-1.4.9 0 1.9-.7 2.3-1.6.6-1.6.7-1.6 1.8 0 .7.9 1.8 1.6 2.5 1.6zm21 0c.9 0 1 .3.1 1.4-.6.7-.8 2.1-.5 3.1.6 1.5.4 1.6-1.2.7-1.4-.7-2.5-.7-3.8 0-1.6.9-1.8.8-1.2-.7.3-1 .1-2.4-.5-3.1-.9-1.1-.8-1.4.5-1.4.9 0 1.9-.7 2.3-1.6.6-1.6.7-1.6 1.8 0 .7.9 1.8 1.6 2.5 1.6zm22 0c.9 0 1 .3.1 1.4-.6.7-.8 2.1-.5 3.1.6 1.5.4 1.6-1.2.7-1.4-.7-2.5-.7-3.8 0-1.6.9-1.8.8-1.2-.7.3-1 .1-2.4-.5-3.1-.9-1.1-.8-1.4.5-1.4.9 0 1.9-.7 2.3-1.6.6-1.6.7-1.6 1.8 0 .7.9 1.8 1.6 2.5 1.6zm-96 9c.9 0 1 .3.1 1.4-.6.7-.8 2.1-.5 3.1.6 1.5.4 1.6-1.2.7-1.4-.7-2.5-.7-3.8 0-1.6.9-1.8.8-1.2-.7.3-1 .1-2.4-.5-3.1-.9-1.1-.8-1.4.5-1.4.9 0 1.9-.7 2.3-1.6.6-1.6.7-1.6 1.8 0 .7.9 1.8 1.6 2.5 1.6zm21 0c.9 0 1 .3.1 1.4-.6.7-.8 2.1-.5 3.1.6 1.5.4 1.6-1.2.7-1.4-.7-2.5-.7-3.8 0-1.6.9-1.8.8-1.2-.7.3-1 .1-2.4-.5-3.1-.9-1.1-.8-1.4.5-1.4.9 0 1.9-.7 2.3-1.6.6-1.6.7-1.6 1.8 0 .7.9 1.8 1.6 2.5 1.6zm21 0c.9 0 1 .3.1 1.4-.6.7-.8 2.1-.5 3.1.6 1.5.4 1.6-1.2.7-1.4-.7-2.5-.7-3.8 0-1.6.9-1.8.8-1.2-.7.3-1 .1-2.4-.5-3.1-.9-1.1-.8-1.4.5-1.4.9 0 1.9-.7 2.3-1.6.6-1.6.7-1.6 1.8 0 .7.9 1.8 1.6 2.5 1.6zm22 0c.9 0 1 .3.1 1.4-.6.7-.8 2.1-.5 3.1.6 1.5.4 1.6-1.2.7-1.4-.7-2.5-.7-3.8 0-1.6.9-1.8.8-1.2-.7.3-1 .1-2.4-.5-3.1-.9-1.1-.8-1.4.5-1.4.9 0 1.9-.7 2.3-1.6.6-1.6.7-1.6 1.8 0 .7.9 1.8 1.6 2.5 1.6zm21 0c.9 0 1 .3.1 1.4-.6.7-.8 2.1-.5 3.1.6 1.5.4 1.6-1.2.7-1.4-.7-2.5-.7-3.8 0-1.6.9-1.8.8-1.2-.7.3-1 .1-2.4-.5-3.1-.9-1.1-.8-1.4.5-1.4.9 0 1.9-.7 2.3-1.6.6-1.6.7-1.6 1.8 0 .7.9 1.8 1.6 2.5 1.6zm-96 9c.9 0 1 .3.1 1.4-.6.7-.8 2.1-.5 3.1.6 1.5.4 1.6-1.2.7-1.4-.7-2.5-.7-3.8 0-1.6.9-1.8.8-1.2-.7.3-1 .1-2.4-.5-3.1-.9-1.1-.8-1.4.5-1.4.9 0 1.9-.7 2.3-1.6.6-1.6.7-1.6 1.8 0 .7.9 1.8 1.6 2.5 1.6zm22 0c.9 0 1 .3.1 1.4-.6.7-.8 2.1-.5 3.1.6 1.5.4 1.6-1.2.7-1.4-.7-2.5-.7-3.8 0-1.6.9-1.8.8-1.2-.7.3-1 .1-2.4-.5-3.1-.9-1.1-.8-1.4.5-1.4.9 0 1.9-.7 2.3-1.6.6-1.6.7-1.6 1.8 0 .7.9 1.8 1.6 2.5 1.6zm21 0c.9 0 1 .3.1 1.4-.6.7-.8 2.1-.5 3.1.6 1.5.4 1.6-1.2.7-1.4-.7-2.5-.7-3.8 0-1.6.9-1.8.8-1.2-.7.3-1 .1-2.4-.5-3.1-.9-1.1-.8-1.4.5-1.4.9 0 1.9-.7 2.3-1.6.6-1.6.7-1.6 1.8 0 .7.9 1.8 1.6 2.5 1.6zm21 0c.9 0 1 .3.1 1.4-.6.7-.8 2.1-.5 3.1.6 1.5.4 1.6-1.2.7-1.4-.7-2.5-.7-3.8 0-1.6.9-1.8.8-1.2-.7.3-1 .1-2.4-.5-3.1-.9-1.1-.8-1.4.5-1.4.9 0 1.9-.7 2.3-1.6.6-1.6.7-1.6 1.8 0 .7.9 1.8 1.6 2.5 1.6zm21 0c.9 0 1 .3.1 1.4-.6.7-.8 2.1-.5 3.1.6 1.5.4 1.6-1.2.7-1.4-.7-2.5-.7-3.8 0-1.6.9-1.8.8-1.2-.7.3-1 .1-2.4-.5-3.1-.9-1.1-.8-1.4.5-1.4.9 0 1.9-.7 2.3-1.6.6-1.6.7-1.6 1.8 0 .7.9 1.8 1.6 2.5 1.6zm22 0c.9 0 1 .3.1 1.4-.6.7-.8 2.1-.5 3.1.6 1.5.4 1.6-1.2.7-1.4-.7-2.5-.7-3.8 0-1.6.9-1.8.8-1.2-.7.3-1 .1-2.4-.5-3.1-.9-1.1-.8-1.4.5-1.4.9 0 1.9-.7 2.3-1.6.6-1.6.7-1.6 1.8 0 .7.9 1.8 1.6 2.5 1.6zM25 35c.9 0 1 .3.1 1.4-.6.7-.8 2.1-.5 3.1.6 1.5.4 1.6-1.2.7-1.4-.7-2.5-.7-3.8 0-1.6.9-1.8.8-1.2-.7.3-1 .1-2.4-.5-3.1-.9-1.1-.8-1.4.5-1.4.9 0 1.9-.7 2.3-1.6.6-1.6.7-1.6 1.8 0 .7.9 1.8 1.6 2.5 1.6zm21 0c.9 0 1 .3.1 1.4-.6.7-.8 2.1-.5 3.1.6 1.5.4 1.6-1.2.7-1.4-.7-2.5-.7-3.8 0-1.6.9-1.8.8-1.2-.7.3-1 .1-2.4-.5-3.1-.9-1.1-.8-1.4.5-1.4.9 0 1.9-.7 2.3-1.6.6-1.6.7-1.6 1.8 0 .7.9 1.8 1.6 2.5 1.6zm22 0c.9 0 1 .3.1 1.4-.6.7-.8 2.1-.5 3.1.6 1.5.4 1.6-1.2.7-1.4-.7-2.5-.7-3.8 0-1.6.9-1.8.8-1.2-.7.3-1 .1-2.4-.5-3.1-.9-1.1-.8-1.4.5-1.4.9 0 1.9-.7 2.3-1.6.6-1.6.7-1.6 1.8 0 .7.9 1.8 1.6 2.5 1.6zm21 0c.9 0 1 .3.1 1.4-.6.7-.8 2.1-.5 3.1.6 1.5.4 1.6-1.2.7-1.4-.7-2.5-.7-3.8 0-1.6.9-1.8.8-1.2-.7.3-1 .1-2.4-.5-3.1-.9-1.1-.8-1.4.5-1.4.9 0 1.9-.7 2.3-1.6.6-1.6.7-1.6 1.8 0 .7.9 1.8 1.6 2.5 1.6zm21 0c.9 0 1 .3.1 1.4-.6.7-.8 2.1-.5 3.1.6 1.5.4 1.6-1.2.7-1.4-.7-2.5-.7-3.8 0-1.6.9-1.8.8-1.2-.7.3-1 .1-2.4-.5-3.1-.9-1.1-.8-1.4.5-1.4.9 0 1.9-.7 2.3-1.6.6-1.6.7-1.6 1.8 0 .7.9 1.8 1.6 2.5 1.6zm-96 9c.9 0 1 .3.1 1.4-.6.7-.8 2.1-.5 3.1.6 1.5.4 1.6-1.2.7-1.4-.7-2.5-.7-3.8 0-1.6.9-1.8.8-1.2-.7.3-1 .1-2.4-.5-3.1-.9-1.1-.8-1.4.5-1.4.9 0 1.9-.7 2.3-1.6.6-1.6.7-1.6 1.8 0 .7.9 1.8 1.6 2.5 1.6zm21 0c.9 0 1 .3.1 1.4-.6.7-.8 2.1-.5 3.1.6 1.5.4 1.6-1.2.7-1.4-.7-2.5-.7-3.8 0-1.6.9-1.8.8-1.2-.7.3-1 .1-2.4-.5-3.1-.9-1.1-.8-1.4.5-1.4.9 0 1.9-.7 2.3-1.6.6-1.6.7-1.6 1.8 0 .7.9 1.8 1.6 2.5 1.6zm22 0c.9 0 1 .3.1 1.4-.6.7-.8 2.1-.5 3.1.6 1.5.4 1.6-1.2.7-1.4-.7-2.5-.7-3.8 0-1.6.9-1.8.8-1.2-.7.3-1 .1-2.4-.5-3.1-.9-1.1-.8-1.4.5-1.4.9 0 1.9-.7 2.3-1.6.6-1.6.7-1.6 1.8 0 .7.9 1.8 1.6 2.5 1.6zm21 0c.9 0 1 .3.1 1.4-.6.7-.8 2.1-.5 3.1.6 1.5.4 1.6-1.2.7-1.4-.7-2.5-.7-3.8 0-1.6.9-1.8.8-1.2-.7.3-1 .1-2.4-.5-3.1-.9-1.1-.8-1.4.5-1.4.9 0 1.9-.7 2.3-1.6.6-1.6.7-1.6 1.8 0 .7.9 1.8 1.6 2.5 1.6zm22 0c.9 0 1 .3.1 1.4-.6.7-.8 2.1-.5 3.1.6 1.5.4 1.6-1.2.7-1.4-.7-2.5-.7-3.8 0-1.6.9-1.8.8-1.2-.7.3-1 .1-2.4-.5-3.1-.9-1.1-.8-1.4.5-1.4.9 0 1.9-.7 2.3-1.6.6-1.6.7-1.6 1.8 0 .7.9 1.8 1.6 2.5 1.6zm21 0c.9 0 1 .3.1 1.4-.6.7-.8 2.1-.5 3.1.6 1.5.4 1.6-1.2.7-1.4-.7-2.5-.7-3.8 0-1.6.9-1.8.8-1.2-.7.3-1 .1-2.4-.5-3.1-.9-1.1-.8-1.4.5-1.4.9 0 1.9-.7 2.3-1.6.6-1.6.7-1.6 1.8 0 .7.9 1.8 1.6 2.5 1.6zm-96 9c.9 0 1 .3.1 1.4-.6.7-.8 2.1-.5 3.1.6 1.5.4 1.6-1.2.7-1.4-.7-2.5-.7-3.8 0-1.6.9-1.8.8-1.2-.7.3-1 .1-2.4-.5-3.1-.9-1.1-.8-1.4.5-1.4.9 0 1.9-.7 2.3-1.6.6-1.6.7-1.6 1.8 0 .7.9 1.8 1.6 2.5 1.6zm21 0c.9 0 1 .3.1 1.4-.6.7-.8 2.1-.5 3.1.6 1.5.4 1.6-1.2.7-1.4-.7-2.5-.7-3.8 0-1.6.9-1.8.8-1.2-.7.3-1 .1-2.4-.5-3.1-.9-1.1-.8-1.4.5-1.4.9 0 1.9-.7 2.3-1.6.6-1.6.7-1.6 1.8 0 .7.9 1.8 1.6 2.5 1.6zm22 0c.9 0 1 .3.1 1.4-.6.7-.8 2.1-.5 3.1.6 1.5.4 1.6-1.2.7-1.4-.7-2.5-.7-3.8 0-1.6.9-1.8.8-1.2-.7.3-1 .1-2.4-.5-3.1-.9-1.1-.8-1.4.5-1.4.9 0 1.9-.7 2.3-1.6.6-1.6.7-1.6 1.8 0 .7.9 1.8 1.6 2.5 1.6zm21 0c.9 0 1 .3.1 1.4-.6.7-.8 2.1-.5 3.1.6 1.5.4 1.6-1.2.7-1.4-.7-2.5-.7-3.8 0-1.6.9-1.8.8-1.2-.7.3-1 .1-2.4-.5-3.1-.9-1.1-.8-1.4.5-1.4.9 0 1.9-.7 2.3-1.6.6-1.6.7-1.6 1.8 0 .7.9 1.8 1.6 2.5 1.6zm21 0c.9 0 1 .3.1 1.4-.6.7-.8 2.1-.5 3.1.6 1.5.4 1.6-1.2.7-1.4-.7-2.5-.7-3.8 0-1.6.9-1.8.8-1.2-.7.3-1 .1-2.4-.5-3.1-.9-1.1-.8-1.4.5-1.4.9 0 1.9-.7 2.3-1.6.6-1.6.7-1.6 1.8 0 .7.9 1.8 1.6 2.5 1.6zm-96 9c.9 0 1 .3.1 1.4-.6.7-.8 2.1-.5 3.1.6 1.5.4 1.6-1.2.7-1.4-.7-2.5-.7-3.8 0-1.6.9-1.8.8-1.2-.7.3-1 .1-2.4-.5-3.1-.9-1.1-.8-1.4.5-1.4.9 0 1.9-.7 2.3-1.6.6-1.6.7-1.6 1.8 0 .7.9 1.8 1.6 2.5 1.6zm21 0c.9 0 1 .3.1 1.4-.6.7-.8 2.1-.5 3.1.6 1.5.4 1.6-1.2.7-1.4-.7-2.5-.7-3.8 0-1.6.9-1.8.8-1.2-.7.3-1 .1-2.4-.5-3.1-.9-1.1-.8-1.4.5-1.4.9 0 1.9-.7 2.3-1.6.6-1.6.7-1.6 1.8 0 .7.9 1.8 1.6 2.5 1.6zm22 0c.9 0 1 .3.1 1.4-.6.7-.8 2.1-.5 3.1.6 1.5.4 1.6-1.2.7-1.4-.7-2.5-.7-3.8 0-1.6.9-1.8.8-1.2-.7.3-1 .1-2.4-.5-3.1-.9-1.1-.8-1.4.5-1.4.9 0 1.9-.7 2.3-1.6.6-1.6.7-1.6 1.8 0 .7.9 1.8 1.6 2.5 1.6zm21 0c.9 0 1 .3.1 1.4-.6.7-.8 2.1-.5 3.1.6 1.5.4 1.6-1.2.7-1.4-.7-2.5-.7-3.8 0-1.6.9-1.8.8-1.2-.7.3-1 .1-2.4-.5-3.1-.9-1.1-.8-1.4.5-1.4.9 0 1.9-.7 2.3-1.6.6-1.6.7-1.6 1.8 0 .7.9 1.8 1.6 2.5 1.6zm22 0c.9 0 1 .3.1 1.4-.6.7-.8 2.1-.5 3.1.6 1.5.4 1.6-1.2.7-1.4-.7-2.5-.7-3.8 0-1.6.9-1.8.8-1.2-.7.3-1 .1-2.4-.5-3.1-.9-1.1-.8-1.4.5-1.4.9 0 1.9-.7 2.3-1.6.6-1.6.7-1.6 1.8 0 .7.9 1.8 1.6 2.5 1.6zm21 0c.9 0 1 .3.1 1.4-.6.7-.8 2.1-.5 3.1.6 1.5.4 1.6-1.2.7-1.4-.7-2.5-.7-3.8 0-1.6.9-1.8.8-1.2-.7.3-1 .1-2.4-.5-3.1-.9-1.1-.8-1.4.5-1.4.9 0 1.9-.7 2.3-1.6.6-1.6.7-1.6 1.8 0 .7.9 1.8 1.6 2.5 1.6zM25 72c.9 0 1 .3.1 1.4-.6.7-.8 2.1-.5 3.1.6 1.5.4 1.6-1.2.7-1.4-.7-2.5-.7-3.8 0-1.6.9-1.8.8-1.2-.7.3-1 .1-2.4-.5-3.1-.9-1.1-.8-1.4.5-1.4.9 0 1.9-.7 2.3-1.6.6-1.6.7-1.6 1.8 0 .7.9 1.8 1.6 2.5 1.6zm21 0c.9 0 1 .3.1 1.4-.6.7-.8 2.1-.5 3.1.6 1.5.4 1.6-1.2.7-1.4-.7-2.5-.7-3.8 0-1.6.9-1.8.8-1.2-.7.3-1 .1-2.4-.5-3.1-.9-1.1-.8-1.4.5-1.4.9 0 1.9-.7 2.3-1.6.6-1.6.7-1.6 1.8 0 .7.9 1.8 1.6 2.5 1.6zm22 0c.9 0 1 .3.1 1.4-.6.7-.8 2.1-.5 3.1.6 1.5.4 1.6-1.2.7-1.4-.7-2.5-.7-3.8 0-1.6.9-1.8.8-1.2-.7.3-1 .1-2.4-.5-3.1-.9-1.1-.8-1.4.5-1.4.9 0 1.9-.7 2.3-1.6.6-1.6.7-1.6 1.8 0 .7.9 1.8 1.6 2.5 1.6zm21 0c.9 0 1 .3.1 1.4-.6.7-.8 2.1-.5 3.1.6 1.5.4 1.6-1.2.7-1.4-.7-2.5-.7-3.8 0-1.6.9-1.8.8-1.2-.7.3-1 .1-2.4-.5-3.1-.9-1.1-.8-1.4.5-1.4.9 0 1.9-.7 2.3-1.6.6-1.6.7-1.6 1.8 0 .7.9 1.8 1.6 2.5 1.6zm21 0c.9 0 1 .3.1 1.4-.6.7-.8 2.1-.5 3.1.6 1.5.4 1.6-1.2.7-1.4-.7-2.5-.7-3.8 0-1.6.9-1.8.8-1.2-.7.3-1 .1-2.4-.5-3.1-.9-1.1-.8-1.4.5-1.4.9 0 1.9-.7 2.3-1.6.6-1.6.7-1.6 1.8 0 .7.9 1.8 1.6 2.5 1.6zm-96 8c.9 0 1 .3.1 1.4-.6.7-.8 2.1-.5 3.1.6 1.5.4 1.6-1.2.7-1.4-.7-2.5-.7-3.8 0-1.6.9-1.8.8-1.2-.7.3-1 .1-2.4-.5-3.1-.9-1.1-.8-1.4.5-1.4.9 0 1.9-.7 2.3-1.6.6-1.6.7-1.6 1.8 0 .7.9 1.8 1.6 2.5 1.6zm21 0c.9 0 1 .3.1 1.4-.6.7-.8 2.1-.5 3.1.6 1.5.4 1.6-1.2.7-1.4-.7-2.5-.7-3.8 0-1.6.9-1.8.8-1.2-.7.3-1 .1-2.4-.5-3.1-.9-1.1-.8-1.4.5-1.4.9 0 1.9-.7 2.3-1.6.6-1.6.7-1.6 1.8 0 .7.9 1.8 1.6 2.5 1.6zm22 0c.9 0 1 .3.1 1.4-.6.7-.8 2.1-.5 3.1.6 1.5.4 1.6-1.2.7-1.4-.7-2.5-.7-3.8 0-1.6.9-1.8.8-1.2-.7.3-1 .1-2.4-.5-3.1-.9-1.1-.8-1.4.5-1.4.9 0 1.9-.7 2.3-1.6.6-1.6.7-1.6 1.8 0 .7.9 1.8 1.6 2.5 1.6zm21 0c.9 0 1 .3.1 1.4-.6.7-.8 2.1-.5 3.1.6 1.5.4 1.6-1.2.7-1.4-.7-2.5-.7-3.8 0-1.6.9-1.8.8-1.2-.7.3-1 .1-2.4-.5-3.1-.9-1.1-.8-1.4.5-1.4.9 0 1.9-.7 2.3-1.6.6-1.6.7-1.6 1.8 0 .7.9 1.8 1.6 2.5 1.6zm22 0c.9 0 1 .3.1 1.4-.6.7-.8 2.1-.5 3.1.6 1.5.4 1.6-1.2.7-1.4-.7-2.5-.7-3.8 0-1.6.9-1.8.8-1.2-.7.3-1 .1-2.4-.5-3.1-.9-1.1-.8-1.4.5-1.4.9 0 1.9-.7 2.3-1.6.6-1.6.7-1.6 1.8 0 .7.9 1.8 1.6 2.5 1.6zm21 0c.9 0 1 .3.1 1.4-.6.7-.8 2.1-.5 3.1.6 1.5.4 1.6-1.2.7-1.4-.7-2.5-.7-3.8 0-1.6.9-1.8.8-1.2-.7.3-1 .1-2.4-.5-3.1-.9-1.1-.8-1.4.5-1.4.9 0 1.9-.7 2.3-1.6.6-1.6.7-1.6 1.8 0 .7.9 1.8 1.6 2.5 1.6z" fill="#3c3b6e"/>
  <path d="M129 6.5V13h167l12-6c6.6-3.3 12-6.2 12-6.5S277 0 224.5 0H129v6.5z" fill="#b22234"/>
  <path d="M284.3 36.9 249 55.5l35.2.3 35.5-.1c.2-.2.2-8.8.1-18.9l-.3-18.6-35.2 18.7z" fill="#012169"/>
  <path d="M129 32v7h116.5l13.5-7 13.5-6.9-71.7-.1H129v7zm0 25.5V64l34.3-.1h34.2l12.5-6.4 12.5-6.4h-46.7L129 51v6.5z" fill="#b22234"/>
  <path d="m163.1 83.3-29.3 16.2 5.1.3 5.1.3V168h32v-68h144V67h-63.7l-63.8.1-29.4 16.2z" fill="#c8102e"/>
  <path d="M129 83.5V90h9.6c9.5 0 9.6 0 18.2-4.7 17-9.2 17.7-8.3-6.5-8.3H129v6.5zm-129 27v6.5h96.9l11.3-6.1 11.7-6.5c.2-.2-26.6-.4-59.7-.4H0v6.5z" fill="#b22234"/>
  <path d="M213.1 111.4c.7.7 105.8 56.6 106.4 56.6.3 0 .5-2.9.5-6.5V155l-7.8-3.9c-4.2-2.1-22.9-12-41.5-22L237 111h-12.2c-6.7 0-11.9.2-11.7.4zM57.2 139.8 5.8 167.5l10.1.3 10 .3 37.8-20.4 49.8-26.7c18-9.5 17.7-9 5.5-9l-10.5.1-51.3 27.7z" fill="#c8102e"/>
  <path d="M251.1 112.4c.2.2 12.1 6.5 26.4 14.1l34.3 18.2 8.2 4.4V112h-34.7l-34.2.4zM86 140.6l-48 25.9c-2.2 1.2 3.8 1.4 46.8 1.5H134v-26c0-20.2-.3-26-1.2-25.9-.7 0-21.8 11.1-46.8 24.5zm100 1.4v26h49.2l48.6-.5c-1-1.1-95.9-51.5-96.8-51.5-.6 0-1 9.9-1 26z" fill="#012169"/>
  <path d="M0 135.5v6.5h50.3l11.3-6.1c6.3-3.3 11.4-6.2 11.4-6.5 0-.2-16.4-.4-36.5-.4H0v6.5zm0 26 .3 6.5c.2 0 5.9-2.9 12.7-6.5l12.5-6.4-12.7-.1H0v6.5z" fill="#b22234"/>
</svg>
