<svg xmlns="http://www.w3.org/2000/svg" width="400" height="340.157" viewBox="0 0 400 NaN" fill-rule="evenodd">
  <path d="M18.638.246c-.702.075-1.276.279-1.276.455s-.469.32-1.042.32c-.607 0-.953.142-.831.341.116.187-.105.34-.49.34s-.701.16-.701.355-.192.325-.426.286c-.656-.107-2.298.659-2.298 1.073 0 .203-.153.274-.34.158s-.34-.048-.34.151-.159.36-.352.36c-.541 0-2.698 2.281-2.434 2.573.128.143.002.177-.28.077s-.709.029-.95.286-.342.468-.225.468-.414.601-1.178 1.335-1.39 1.586-1.39 1.893-.153.463-.34.347-.341.105-.341.49-.143.701-.317.701c-.284 0-.739.956-.89 1.873-.148.895-.605 1.872-.875 1.872-.165 0-.301.447-.301.993S.83 18.05.596 18.128C.256 18.241.17 48.722.17 169.021l.426 150.894c.234.078.425.512.425.964s.153.823.341.823.34.281.34.624.106.73.236.86.286.577.347.993.338.927.615 1.135.504.629.504.936.153.559.341.559.34.24.34.534c0 .639.804 1.508 1.394 1.508.232 0 .331.091.22.202-.386.386 4.579 4.952 5.148 4.734.295-.113.434-.103.308.023-.316.316.593 1.169 1.246 1.169.294 0 .535.153.535.34s.392.341.871.341c.573 0 .788.134.628.394-.166.269-.014.334.479.205.443-.116.694-.038.649.201-.041.215.348.44.863.499s.936.234.936.39c0 .821 299.747 1.539 300.734.72.206-.171.91-.362 1.565-.424s1.161-.277 1.126-.477c-.039-.216.341-.304.936-.216s1-.007 1-.233c0-.208.307-.379.681-.379s.681-.153.681-.34.306-.34.681-.34.681-.154.681-.341.23-.34.51-.34.511-.138.511-.307.46-.468 1.021-.664 1.022-.526 1.022-.734.115-.307.255-.22.638-.298 1.106-.854 1.2-1.346 1.627-1.755l1.767-1.708c.545-.531 1.097-1.45 1.227-2.042s.523-1.278.872-1.523.635-.819.635-1.276.153-.832.34-.832.341-.307.341-.681.153-.681.34-.681.341-.374.341-.831.153-.925.34-1.041.341-.958.341-1.873.153-1.756.34-1.872c.502-.31.469-293.692-.033-294.195-.205-.205-.367-1.155-.36-2.11s-.131-1.737-.307-1.737-.321-.46-.321-1.022-.153-1.021-.341-1.021-.34-.383-.34-.851c0-.522-.194-.851-.5-.851s-.424-.199-.3-.521c.114-.298-.099-.78-.499-1.127-.384-.333-.807-1.04-.941-1.572-.251-1.001-5.956-6.993-6.658-6.993-.211 0-.632-.284-.935-.632-.534-.614-1.99-1.274-2.508-1.137-.14.037-.255-.086-.255-.273s-.306-.341-.681-.341-.681-.153-.681-.34-.37-.341-.822-.341-.887-.191-.965-.425C320.802.193 22.403-.152 18.638.246m62.383 47.79c0 .168.527.304 1.172.304s1.268.158 1.387.35a.62.62 0 0 0 .621.256c.538-.123 3.629 1.16 3.629 1.507 0 .149.306.27.681.27s.68.17.68.377.219.293.485.191c.282-.108.714.163 1.03.644.299.457.759.831 1.022.831.632 0 6.995 6.365 6.995 6.998 0 .27.151.491.334.491s.43.383.548.851.35.851.517.851.304.307.304.681.153.681.34.681.34.307.34.681.154.681.341.681.34.306.34.681.153.681.341.681.34.383.34.851.137.851.305.851.409.651.536 1.446c.353 2.197.457 11.83.128 11.83-.158 0-.288.536-.288 1.192s-.153 1.191-.34 1.191-.341.46-.341 1.022-.153 1.021-.34 1.021-.341.306-.341.681-.115.682-.255.683c-.435.005-1.077 1.72-.858 2.291.128.335.069.456-.155.318-.407-.252-.881.685-.588 1.16.104.168-.073.205-.395.082-.396-.152-.505-.096-.338.174.136.219.084.398-.114.398s-.361.168-.361.374-.46.804-1.023 1.33c-.651.609-.947 1.152-.814 1.498.116.303.035.543-.184.543s-.776.383-1.244.851-1.009.851-1.202.851-.941.613-1.66 1.362-1.474 1.361-1.676 1.361-.367.153-.367.341-.295.34-.656.34-.887.23-1.168.511-.827.51-1.215.51-.705.154-.705.341-.307.34-.681.34-.681.153-.681.341-.46.34-1.021.34-1.022.153-1.022.341-.536.34-1.191.34-1.192.153-1.192.34-.881.352-1.957.366-2.753.138-3.726.277-1.691.127-1.597-.025-.833-.277-2.061-.277c-1.262 0-2.233-.148-2.233-.341 0-.187-.383-.34-.851-.34s-.851-.153-.851-.34-.46-.341-1.022-.341-1.021-.153-1.021-.34-.383-.341-.851-.341-.851-.153-.851-.34-.306-.341-.681-.341-.681-.15-.681-.334-.383-.43-.851-.547-.851-.35-.851-.517-.245-.304-.544-.304-.974-.459-1.498-1.021-1.117-1.021-1.315-1.021c-.496 0-3.792-3.283-3.792-3.778 0-.22-.383-.754-.851-1.188s-.851-1.026-.851-1.316-.153-.527-.34-.527-.341-.25-.341-.556-.268-.805-.595-1.11c-.832-.773-1.447-1.945-1.447-2.755 0-.377-.136-.685-.301-.685s-.407-.843-.536-1.873-.376-1.872-.549-1.872-.316-1.063-.316-2.363-.154-2.457-.341-2.573c-.443-.274-.443-2.213 0-2.213.192 0 .341-.958.341-2.192 0-1.206.131-2.275.292-2.374s.393-.907.514-1.794c.239-1.741.904-3.512 1.319-3.512.142 0 .258-.307.258-.681s.153-.681.34-.681.34-.306.34-.681.17-.681.377-.681.289-.229.181-.51c-.117-.304-.003-.511.281-.511.399 0 1.112-1.302.897-1.635-.037-.056.4-.539.971-1.073s1.038-1.066 1.038-1.184c0-.27 2.29-2.576 2.557-2.576.109 0 .58-.383 1.049-.851s1.05-.851 1.293-.851.72-.306 1.059-.681.822-.681 1.074-.681.457-.153.457-.34.307-.341.681-.341.681-.153.681-.34.307-.34.681-.34.681-.152.681-.337.616-.435 1.369-.555 1.452-.352 1.552-.515.71-.296 1.354-.296 1.172-.149 1.172-.331c0-.195 2.057-.37 5.021-.425 5.238-.099 5.872-.05 5.872.452m153.022 75.538c.115.188 1.58.341 3.254.341 1.838 0 3.043.137 3.043.347 0 .196.731.32 1.688.287.929-.033 1.902.117 2.163.334s.842.388 1.291.381c1.592-.025 4.39.444 4.39.737 0 .163.383.297.851.297s.851.153.851.34.46.341 1.022.341 1.021.153 1.021.34.383.341.851.341.851.169.851.376.236.287.524.176a.546.546 0 0 1 .727.33c.139.363.457.466 1.01.327s.78-.065.72.227c-.048.236.411.577 1.019.758s1.107.451 1.107.599.272.27.605.27.827.307 1.097.681.686.681.926.681.435.127.435.283.422.5.937.766c.952.491 1.436.828 2.285 1.589.261.234.566.426.678.426s.886.651 1.719 1.447l2.374 2.225c.472.427.858.979.858 1.226 0 .529 1.899 2.591 2.386 2.591.186 0 .338.236.338.525s.299.846.664 1.238a4.13 4.13 0 0 1 .863 1.621c.11.5.501 1.126.868 1.391s.669.755.669 1.088.153.605.34.605.341.307.341.681.153.681.34.681.34.23.34.511.154.51.341.51.342.345.345.766c.007 1.095.373 2.315.644 2.148.127-.079.268.344.313.94s.229 1.134.411 1.196.329.56.329 1.106.154.993.341.993.34.383.34.851.153.851.341.851.34.613.34 1.362.153 1.362.34 1.362.341.527.341 1.171.16 1.271.356 1.392.286.665.2 1.21-.016 1.076.155 1.182.31.918.31 1.805.169 1.784.376 1.99.366 1.228.354 2.269.124 1.984.304 2.095.328 1.56.328 3.218c0 1.749.146 3.064.347 3.131.223.074.348 2.894.348 7.858 0 4.825.126 7.743.333 7.743.213 0 .334 5.728.334 15.829 0 10.327-.119 15.83-.341 15.83s-.34 9.816-.34 28.766v28.766H238.328l-.1-48.737-.526-48.88c-.263-.088-.425-.779-.425-1.815 0-.921-.154-1.674-.341-1.674s-.34-.536-.34-1.192-.153-1.191-.341-1.191-.34-.46-.34-1.021-.153-1.022-.341-1.022-.34-.383-.34-.851-.153-.851-.34-.851-.341-.306-.341-.681-.136-.681-.302-.681-.397-.502-.513-1.117-.515-1.338-.888-1.607-.68-.691-.68-.937c0-.559-2.241-2.835-2.519-2.557-.112.112-.204.042-.204-.157 0-.583-1.926-2.476-2.52-2.476-.299 0-.544-.117-.544-.26 0-.316-2.527-1.442-3.236-1.442-.28 0-.509-.153-.509-.34s-.374-.341-.831-.341-.924-.151-1.039-.337-.843-.312-1.618-.282c-.793.031-1.465-.113-1.537-.33-.167-.499-11.996-.566-11.996-.067 0 .184-.689.336-1.532.336s-1.532.153-1.532.34-.536.34-1.191.34-1.192.154-1.192.341-.382.34-.849.34c-.969 0-3.576 1.051-3.576 1.442 0 .143-.245.26-.545.26s-.973.46-1.498 1.022-1.09 1.021-1.256 1.021c-.552 0-3.85 3.322-3.85 3.878 0 .301-.146.547-.325.547s-.579.537-.89 1.192-.719 1.191-.906 1.191-.262.307-.164.681c.116.443.011.681-.3.681-.284 0-.479.347-.479.851 0 .468-.153.851-.341.851s-.34.307-.34.681-.153.681-.34.681-.341.46-.341 1.021-.122 1.021-.272 1.021-.209.537-.133 1.192c.085.729-.007 1.191-.238 1.191-.208 0-.378.537-.378 1.192s-.153 1.191-.34 1.191-.341.834-.341 1.853-.153 1.947-.34 2.062-.341 1.706-.341 3.595c0 2.029-.136 3.384-.34 3.384-.225 0-.341 14.638-.341 43.234v43.234h-48.34v-159.65l23.328-.09 23.328-.09-.094 10.809-.094 10.809h1.277c1.049-.001 1.276-.122 1.276-.681 0-.375.129-.681.287-.681s.576-.536.929-1.192.76-1.191.904-1.191.267-.268.271-.596.617-1.123 1.362-1.767 1.354-1.385 1.354-1.647c0-.512 4.413-4.841 4.935-4.841.107 0 .73-.537 1.385-1.192s1.317-1.191 1.47-1.191.76-.46 1.348-1.022 1.266-1.021 1.507-1.021.659-.306.929-.681.687-.681.926-.681.436-.153.436-.34.225-.34.501-.34c.629 0 4.395-1.751 4.548-2.114.063-.148.408-.269.766-.269s.653-.154.653-.341.383-.34.851-.34.851-.153.851-.341.306-.34.681-.34.681-.131.681-.292.949-.391 2.108-.512 2.224-.406 2.364-.633c.15-.244.821-.372 1.636-.313.821.059 1.381-.049 1.381-.267 0-.224.86-.366 2.213-.366 1.248 0 2.213-.148 2.213-.341 0-.214 2.319-.34 6.277-.34 3.818 0 6.361.133 6.489.34M99.745 207.489v79.83H51.404V127.66h48.341v79.829m138.107-7.744c-.086.327-.156.059-.156-.596s.07-.923.156-.596a2.82 2.82 0 0 1 0 1.192m133.552 94.042c0 .187-.622.341-1.382.341-.834 0-1.298.134-1.171.34.123.199-.223.341-.831.341-.573 0-1.041.153-1.041.34s-.307.34-.681.34-.681.17-.681.377-.219.293-.486.191-.667.032-.889.3-.512.42-.644.338-.455.15-.718.515-.716.662-1.008.662-.756.321-1.031.713c-.814 1.159-1.692 2.133-1.692 1.877 0-.131-.383.145-.851.613s-.851 1.032-.851 1.253-.321.679-.712 1.018-.63.751-.529.914-.115.512-.48.774c-.383.276-.662.877-.662 1.424 0 .52-.153.946-.341.946s-.34.307-.34.681-.153.681-.34.681-.341.383-.341.851-.153.851-.34.851-.341.843-.341 1.872-.153 1.873-.34 1.873c-.199 0-.341 1.128-.341 2.703 0 1.487.154 2.798.341 2.914s.34.891.34 1.722.153 1.512.341 1.512.34.536.34 1.191.153 1.192.341 1.192.34.306.34.681.153.681.34.681.341.306.341.68.153.681.34.681.341.307.341.681.162.681.36.681.278.134.177.297.273.775.831 1.359 1.015 1.292 1.015 1.575.146.514.325.514.708.383 1.176.851.949.851 1.07.851.649.459 1.173 1.021 1.199 1.021 1.499 1.021.544.12.544.267c0 .463 1.939 1.435 2.861 1.435.486 0 .884.154.884.341s.383.34.851.34.851.138.851.307c0 .678 13.649.787 13.875.11.076-.229.595-.417 1.152-.417s.927-.139.821-.31.422-.414 1.172-.541 1.363-.37 1.363-.54.306-.311.681-.311.68-.153.68-.34a.35.35 0 0 1 .356-.341c.497 0 2.032-1.584 1.78-1.836-.114-.113.049-.206.361-.206s.567-.153.567-.341.164-.34.365-.34c.402 0 1.337-.84 1.337-1.201 0-.125.46-.657 1.022-1.182s1.021-1.162 1.021-1.417.321-.663.714-.908c.45-.281.653-.68.549-1.078-.12-.461-.024-.577.358-.431.41.158.485.009.351-.696-.095-.493-.041-.815.12-.716s.291-.212.291-.691.153-.872.34-.872.341-.446.341-.993.174-1.051.387-1.122c.27-.09.388-1.882.388-5.885s-.118-5.795-.388-5.885c-.213-.071-.387-.652-.387-1.292s-.14-1.163-.311-1.163-.414-.613-.54-1.362-.37-1.361-.541-1.361-.31-.307-.31-.681-.154-.681-.341-.681-.34-.196-.34-.436-.307-.656-.681-.926-.681-.694-.681-.942c0-.553-3.219-3.824-3.762-3.824-.215 0-.801-.421-1.302-.936-1.141-1.171-2.352-1.872-2.78-1.608-.179.111-.326.039-.326-.159s-.307-.361-.681-.361-.681-.153-.681-.34-.383-.34-.851-.34-.851-.154-.851-.341-.613-.34-1.362-.34-1.361-.154-1.361-.341c0-.211-1.873-.34-4.937-.34s-4.936.129-4.936.34m8.17 3.745c0 .187.537.34 1.192.34s1.191.154 1.191.341.46.34 1.022.34 1.021.153 1.021.341.306.34.681.34.681.153.681.34.223.341.495.341.878.383 1.346.851 1.05.851 1.292.852.733.436 1.089.969a7.07 7.07 0 0 0 1.617 1.616c.532.356.968.85.968 1.098.001.569.872 1.46 1.152 1.179.116-.116.211.198.211.697s.169.908.377.908.288.23.181.511-.048.51.133.51.33.307.33.681.153.681.341.681.34.523.34 1.163.17 1.22.378 1.289c.509.17.495 8.207-.014 8.377-.2.067-.364.492-.364.944s-.153.823-.34.823-.341.529-.341 1.176c0 .8-.272 1.448-.851 2.027-.468.468-.851 1.054-.851 1.302s-.306.672-.681.942-.681.772-.681 1.116-.121.551-.268.46-.57.282-.937.83-.897.998-1.178 1-.872.462-1.315 1.022-1.093 1.018-1.446 1.018-.643.17-.643.377-.23.289-.511.181-.51-.047-.51.134-.307.33-.681.33-.681.153-.681.34-.383.341-.851.341-.851.153-.851.34-.766.34-1.702.34-1.702.154-1.702.341-.843.34-1.873.34-1.872-.153-1.872-.34-.689-.341-1.532-.341c-.895 0-1.532-.157-1.532-.377 0-.229-.454-.325-1.153-.243-.775.09-1.103.005-1.002-.259.126-.326-.58-.732-1.646-.947-.125-.025-.342-.161-.482-.301s-.475-.256-.743-.256-.917-.459-1.442-1.021-1.122-1.021-1.328-1.021-.374-.17-.374-.377-.222-.292-.493-.188c-.319.123-.431.026-.316-.273.103-.268-.119-.556-.528-.686-.388-.123-.706-.486-.706-.807s-.293-.794-.651-1.053-.927-1.134-1.262-1.947-.731-1.478-.88-1.478-.27-.459-.27-1.021-.154-1.021-.341-1.021-.34-.383-.34-.851-.153-.851-.341-.851c-.209 0-.34-1.702-.34-4.426s.131-4.425.34-4.425c.188 0 .341-.46.341-1.022s.169-1.021.377-1.021.286-.236.176-.523a.54.54 0 0 1 .304-.718c.277-.106.505-.483.505-.838s.136-.644.303-.644.4-.383.517-.851.364-.851.548-.851.334-.307.334-.681.14-.681.312-.681c.438 0 2.901-2.412 3.383-3.313.243-.453.599-.671.906-.553.278.107.505.04.505-.149s.689-.626 1.531-.973 1.531-.744 1.532-.884.46-.256 1.022-.256 1.021-.153 1.021-.34.537-.341 1.192-.341 1.191-.153 1.191-.34c0-.203 1.305-.341 3.234-.341s3.234.138 3.234.341m-11.833 19.466.089 12.704 2.127.101 2.128.102v-10.586h1.872c1.561 0 1.873.1 1.873.599 0 .33.312.794.694 1.033s.617.558.522.711.13.601.498.996.669.954.669 1.243.153.525.34.525.341.196.341.435.306.656.68.926.681.707.681.972.422.843.936 1.286c.53.455.734.805.469.806-.381 0-.387.096-.033.522.475.573 5.437.675 5.437.113 0-.162-.192-.297-.426-.3-.288-.003-.261-.121.085-.366.385-.272.406-.404.086-.534-.235-.095-.426-.466-.426-.825s-.118-.652-.263-.652-.552-.537-.905-1.192-.77-1.191-.928-1.191-.287-.273-.287-.606-.306-.827-.681-1.097-.681-.63-.681-.801-.282-.558-.626-.861c-1.224-1.075-1.247-2.423-.042-2.423.792 0 1.448-.394 2.69-1.617l1.643-1.617.054-3.66c.034-2.341-.074-3.659-.301-3.659-.195 0-.359-.268-.365-.596-.015-.784-1.153-2.127-1.802-2.127-.282 0-.577-.192-.655-.426-.106-.319-2.067-.452-7.862-.534l-7.721-.108.09 12.704m13.012-7.765c.496.495.813 1.042.707 1.214s-.039.411.151.528c.441.273.455 1.536.017 1.536-.182 0-.242.229-.134.51s.026.511-.181.511-.377.215-.377.479c0 .311-.238.416-.681.3-.38-.099-.681-.01-.681.202 0 .257-1.214.381-3.744.381h-3.745v-6.904l3.884.172c3.634.16 3.942.229 4.784 1.071" fill="#2c64b4"/>
  <path d="M103.604 75.574c0 1.405.06 1.979.133 1.277a14.71 14.71 0 0 0 0-2.553c-.073-.702-.133-.128-.133 1.276m75.611 62.298.104 5.362c.056-2.949.056-7.774 0-10.723s-.104-.537-.104 5.361m58.481 61.277c0 .655.07.923.156.596a2.82 2.82 0 0 0 0-1.192c-.086-.327-.156-.059-.156.596" fill="#2c6cb4"/>
</svg>
