<svg xmlns="http://www.w3.org/2000/svg" width="800" height="937" shape-rendering="geometricPrecision" image-rendering="optimizeQuality" fill-rule="evenodd">
  <path fill="#cf142b" d="M691.379 428.459c.063-.35 14.858-4.618 14.858-4.618l13.298-9.791c18.785 18.624 8.635 45.793 1.309 53.029l17.341-5.891c-2.493 23.206-7.066 54.303-45.963 66.955l.206 124.171 69.269.888L765.41 937H54.272l3.049-284.865 65.224-.395.135-98.141-34.996-47.73v-11.137l-34.998 9.541 22.265-60.445-28.63-12.733 62.04-49.317 12.733 7.953v-52.499h-71.59L.185.529h179.766l-.116 93.04h120.521l-.17-92.954L510.861.529l-.018 93.506h121.375L632.047.669 799.815.531l-39.212 337.552h-69.241l.017 90.376z"/>
  <path d="m616.103 844.481 1.766-10.957c-6.286.009-11.235-.69-14.83-14.481l-13.065 30.738c11.37 2.475 19.135-.35 26.129-5.3zM158.412 172.225c6.008 18.363 17.458 22.955 28.587 24.148l.009 24.336-36.737 2.815c-10.957 2.287-14.158-8.088-19.951-41.516l28.092-9.783zm-14.392 59.243c4.357 32.119 18.435 35.069 27.815 37.311l-.323 4.259-10.15 1.964.655 13.091 72.343-15.709-17.682-33.061c6.663-22.542 7.317-43.489-9.486-71.358l-39.939-3.927c9.926 28.192 21.386 22.3 30.765 23.896l-2.942 39.607-51.056 3.927zm73.313 72.666-5.56-19.314-35.347 5.237-.664 21.933c19.754 3.641 31.537-1.264 41.571-7.855zm11.128-23.241-10.142 3.272 3.596 16.365 11.791-8.509zm16.042-115.546.439 18.373 93.182-12.804 11.782-20.956zm1.64 27.501 87.722-12.768-10.474 16.687-71.689 10.15zm51.675 629.278c79.087 25.295 128.836 21.583 186.393 21.529l-1.488 24.508c-76.863-.692-142.214 1.532-230.948-41.588 19.681-19.996 32.298-8.116 46.043-4.449zm-26.729-31.93-.744 11.128c85.023 40.898 154.829 35.697 216.09 36.396l2.233-20.794c-75.384 5.245-134.045 5.99-217.579-26.73zm217.803-640.702c14.355-2.529 21.547 1.344 27.671 7.191 20.445-3.631 22.059 7.12 23.206 11.307l23.833-3.004 33.724-25.215-36.485-14.634-79.697 12.169c3.021 5.183 4.734 7.004 7.747 12.186zm44.986 687.579c-6.644 10.958-16.247 13.415-6.071 24.714-11.943 6.008-20.776 7.075-34.261 4.232 10.302-9.165 14.902-16.23 19.772-29.312 6.007 17.306 14.974 3.909 20.561.367zM278.217 368.291c-21.493-5.2-2.179-18.947 5.237-20.946l-27.493-23.241c-14.624 1.021-41.14 5.926-44.412 40.628l42.781 34.656c11.558 2.986 16.794-1.596 17.996-5.891l5.891-25.205zm-15.494-43.784c-1.632-7.2 3.272-12.105 7.425-12.805l33.06 18.006-15.72 14.07-24.765-19.27z" fill="#fff"/>
  <g fill="#fcc917">
    <path d="m222.901 238.346 24.327 23.932 17.028-31.751c-15.718-6.214-36.988-50.734-18.66-86.744l-26.29-22.301-13.145 30.667c27.976 21.754 26.883 75.393 16.74 86.198zm109 28.468 5.237 16.696c-8.071-1.264-77.026 9.245-55.863-51.343 10.473 36.656 33.716 33.382 50.627 34.647zm-209.159-82.152 7.963 37.355-7.963 8.796-29.025-19.269 17.019-31.096zm51.38 133.219c25.645 11.173 67.215-9.774 72.022-27.169l18.982 3.936-6.438 20.005c-15.271 2.985-48.116 6.214-57.719 53.639l-40.477-11.415c-.44-.035 13.63-38.996 13.63-38.996zm251.071-22.256c-12.33-16.651-25.745-33.679-61.755-34.657 0 0 1.416 13.666 1.848 13.702 25.967.377 39.391 7.578 51.065 21.942l8.841-.986zm81.058 454.194c23.744 1.416 37.159 10.249 51.226 22.248-4.528 7.783-22.542 18.731-43.094 11.657l8.832-16.948-5.659-1.416-16.597 22.606-8.124 4.591-9.191 1.417 22.607-44.154zM486.48 547.77l-4.95 22.606-25.78-40.969zM393.225 72.756c12.104 10.805 9.872 22.766 4.465 27.985a12.9 12.9 0 0 1 6.582-1.802c7.371 0 13.333 6.232 13.333 13.917 0 7.693-5.963 13.916-13.333 13.916-5.774 0-11.648-2.842-13.343-8.196l-1.309 4.914 39.902 27.771.709.439 4.259-6.312c-.734.269-1.497.484-2.286.646-7.711 1.497-15.181-3.541-16.687-11.263a14.24 14.24 0 0 1 11.263-16.688c7.567-1.47 15.485 6.447 17.18 13.916-.135-.762.583-6.286.583-7.084 0-7.864 6.367-14.239 14.23-14.239a14.24 14.24 0 0 1 14.231 14.239c0 7.703-5.02 13.72-12.679 13.962.503-.592-.986 4.25-.368 3.9 6.842-3.873 15.001-4.268 20.059 1.757 5.047 6.017 6.151 16.364-.019 21.242-13.28 10.517-23.268 2.232-23.241-7.748-.045.798-4.421 7.2-4.421 7.2l37.123 23.547 7.273-3.426a15.06 15.06 0 0 1-2.368-.135c-7.783-1.104-13.208-8.294-12.114-16.077a14.24 14.24 0 0 1 16.077-12.114c7.631 1.077 12.993 8.016 12.168 15.629 1.614-6.949 6.035-15.181 18.247-7.111l-38.78 36.765-115.107-77.482c.503-.314 17.853-50.921 18.203-50.769.099.09-.089-1.39.171-1.3z"/>
    <path d="m66.853 427.679 44.86-34.612 55.102 49.801-28.973 1.408-32.845-11.657 11.657-11.656-7.765-3.533-27.554 10.249zm251.302-205.698 3.928 8.832 10.796-8.509-4.582 18.327 7.863 12.114 13.092-7.855-10.151 14.078c4.699 8.876 6.008 12.473 13.854 18.032 3.604-54.329 54.177-43.668 69.726-25.358 17.468 23.286 21.081 69.134-42.009 47.909l-11.128-4.582-9.164-7.2s-5.022-4.833-5.452-4.869l-.439 7.81-7.201 17.682c21.386 9.854 35.455 12.805 53.46 12.805l-.108 11.415c-30.657-5.855-77.796-22.543-106.713 20.623l-6.214-.323-4.259 7.192 7.2 2.627-7.2 25.851 52.195-24.479h6.707l.359 5.649-170.611 83.005-24.372 2.475-55.1-9.541-25.08 43.094 25.08-5.299 3.891-22.964 10.949 2.475-7.774 22.256 27.555-2.125 24.721-11.299 9.182 4.591-60.041 28.962 34.262 48.395-1.408-50.161 6.707 21.906 33.913-29.32 8.824-1.059-7.415 21.548c-.071.69 20.49 7.415 20.49 7.415l-1.417 5.3-20.139-.359-14.472 15.19c20.561 1.435 30.092-2.457 45.21-10.599l-2.466-24.013 36.019-18.722 6.717 5.649-17.665 16.256c44.224 13.083 55.532-25.77 61.1-40.269l11.029-3.165c-2.044 17.682-6.357 31.437-16.947 40.969 53.757-5.272 43.158-42.01 43.794-57.566l8.832-6.007c5.012 20.148 5.729 32.163-6.007 53.344 8.904 1.066 18.086-.7 31.438-9.191 21.269-20.113 18.086-36.01 21.548-61.459 17.377 28.272 6.779 38.871-.987 61.127l97.774 41.66c1.13-12.697-5.586-25.062-20.139-33.204.072-.332 3.183-4.242 3.183-4.242 36.45 12.733 33.76 47.381 23.448 76.325-36.799 86.879 32.998 125.714-3.667 157.16 63.287-2.815 49.165-40.96 50.152-59.341-.413-.009 52.635 25.429 52.635 25.429 11.719 21.916 7.129 44.52-13.351 84.781-21.548 11.657-40.27 20.13-72.487 23.303l-7.058 48.036 18.723-40.269 3.533-.35 7.056 20.838 19.781-3.532 21.188-27.187 5.299 2.115-14.126 22.607-21.906 29.662 40.269 31.437-8.474-27.904-12.006-12.356 3.882-4.592 20.481 13.774 26.497-61.818 11.657 31.088 15.19 1.059 1.766-3.532h4.591l-1.416 10.239-9.119.018-.351 29.664 17.593-25.438 9.541-25.789-19.073-18.714 4.941-9.191c15.612 9.551 25.143 16.265 28.962 31.438 15.612-13.057 21.969-40.96-13.423-80.531 23.735 2.833 28.398 19.799 35.034 33.212 9.19-20.838 14.132-61.816-41.032-84.78l.35-33.562-39.203-12.007-.708-5.299-13.71-6.339c.063-14.822 22.256-46.626-18.086-79.49 46.699 13.79 67.188-14.464 80.54-27.556 49.864 12.383 62.579-21.879 63.932-39.561-12.652 8.5-46.842 20.524-54.688 2.851 36.037-1.058 47.335-6.716 47.264-42.404-14.768 7.784-33.84 11.675-48.036 7.058-4.169-24.704-16.005-47.999-41.499-69.206l-15.548 20.839c44.404 26.488 38.396 147.638-36.486 106.669l-36.736-32.496-59.664-61.63c-8.725 3.964-33.598 13.128-57.281-3.272 45.937 8.555 76.048-9.46 75.285-30.442-23.125 12.472-34.585 8.222-55.647 5.559l1.964-6.214c74.415 2.332 67.87-25.492 69.726-47.47-9.057 10.841-24.444 19.359-49.434 14.077l.986-8.832c22.372.368 60.669-11.092 48.555-52.661-5.784 13.782-15.056 20.291-42.224 22.91l-.978-6.869c5.891-3.281 47.676-6.259 38.844-53.074-12.006 13.468-20.847 20.014-41.579 23.573l-1.309-9.164c20.73-5.532 29.68-12.356 38.736-24.846-.439-.036.655-28.146.655-28.146-11.02 12.804-24.219 29.133-53.469 28.111l-.646-6.214c75.061-7.487 15.315-78.486-19.315-18.659l-5.567.655-4.26-4.259 2.296-4.25-1.309-10.15-58.266-38.952-16.042 27.824 26.515 2.618.664 14.732-25.86 14.4c-.771-.045 8.285-19.601 8.285-19.601l-12.544-10.186-23.967 41.252zm119.277 306.816 35.643 49.013-8.168 37.13c-8.545-.7-59.791-2.187-57.182 40.835 46.403 20.102 24.13 43.121 2.978 51.989 5.559-8.123 7.782-26.685-11.891-28.218 5.561 23.072 12.25 46.08-37.867 59.405 26.353-22.229 10.76-34.854 7.415-46.036-6.312 24.552-4.08 43.856-43.812 51.981l1.488-28.219-6.681-5.2-5.946 15.593-18.56 11.882 17.072 24.505-40.835 23.017 17.817-28.217-8.159-2.969-8.178 7.425 1.488-14.104-7.425-20.795-20.05.735-17.825 33.428-11.137-2.233-2.224-5.944-12.625-6.681-2.232 6.681 13.369 10.401-5.2 30.442-22.274-50.493 53.469-25.994-1.488-5.936-51.236 21.53-20.794-17.817-2.224 14.848-23.026 27.474 5.2-46.037 157.429-50.5 9.649-4.456c18.938-5.891-5.569-49.703 13.379-63.117-22.668.79-64.246 3.757-37.14-57.925 37.502 39.407 104.332 9.7 147.785-7.426zM209.451 684.738l-37.132-31.932-44.555 46.045 12.625.745 28.963-13.37 4.457-12.625 8.912 5.201-1.488 8.169-8.169 1.488 16.337 3.712zm-70.55 89.112 11.137-8.903 18.57-25.995 9.658 5.945 31.187 65.34 15.594-40.099 13.369 5.2-23.762 39.365-13.369-1.488-16.338-29.707-7.424 15.594-20.05-16.338-2.968-14.104-5.945 11.882 3.713 7.425c-15.235-5.148-23.395 2.277-17.817 37.876-10.034-11.836-41.23-24.463-16.337-52.735l3.712 2.232 2.224-11.137c-18.938-28.174.368-33.375 10.402-31.196v40.843h4.445zm122.53-39.356c18.929 20.847-7.802 63.171 5.2 75.742-15.234 11.934-52.366 19.36-37.131 57.181 3.479-7.532-.377-14.804 8.169-20.05 58.284 29.752-31.564 76.54-35.643 5.202.368-17.037 30.81-36.342 31.93-55.693 20.418-18.516 17.441-39.311 11.882-50.501l15.593-11.881zm413.414-522.466c-14.428-1.972-10.007 14.078-9.962 23.242-9.452-7.506-18.301-19.126-13.836-43.166l-6.124 6.33-6.052-.799c-3.362 9.102-7.828 19.297-.036 34.558-12.778-2.529-36.02-15.262-29.886-44.834l-13.835 4.43c-11.11 25.699 8.85 30.989 20.515 41.812-18.301 3.013-36.566 7.443-53.127-22.13-35.455 54.473 9.361 106.497 30.989 131.156l-24.947 5.774c-16.051-19.925-27.16-32.962-37.078-63.637-22.139-86.888 44.189-113.518 75.222-119.294 48.743-3.013 65.35 14.149 87.48 35.725 29.886 35.975 32.639 108.929-45.928 152.192-14.436 14.077-67.564 11.864-66.407 123.966-10.007-12.491-41.552-26.327-25.466-71.941-3.353 3.561-25.447 3.864-16.005 56.195-43.202-36.279-6.68-62.839-3.873-69.726-11.657 2.457-21.063 3.568-29.887 27.115-9.442-77.231 70.228-49.963 115.115-81.902 93.489-50.671 74.668-100.483 53.13-125.069zM365.491 142.85l59.216 43.166 19.369-5.532-71.994-50.672z"/>
  </g>
</svg>
